<?xml version="1.0" encoding="UTF-8"?>
<svg width="1200pt" height="1200pt" version="1.1" viewBox="0 0 1200 1200" xmlns="http://www.w3.org/2000/svg">
 <g>
  <path d="m1091.2 65.715c-5.1797 0-9.4609-4.1914-9.4609-9.375 0-5.1797 4.0977-9.3711 9.2617-9.3711h0.20313c5.1641 0 9.375 4.1914 9.375 9.3711-0.003907 5.1836-4.2148 9.375-9.3789 9.375z"/>
  <path d="m1051.4 105.48c-5.1797 0-9.4648-4.1914-9.4648-9.3711 0-5.1836 4.1016-9.375 9.2617-9.375h0.20312c5.1641 0 9.3711 4.1914 9.3711 9.375 0.003906 5.1758-4.207 9.3711-9.3711 9.3711z"/>
  <path d="m1011.7 145.24c-5.1836 0-9.4648-4.1914-9.4648-9.3711 0-5.1797 4.0977-9.3711 9.2617-9.3711h0.20312c5.1641 0 9.3711 4.1914 9.3711 9.3711 0.003906 5.1758-4.207 9.3711-9.3711 9.3711z"/>
  <path d="m1144.2 118.73c-5.1836 0-9.4648-4.1914-9.4648-9.3711s4.1016-9.375 9.2656-9.375h0.20312c5.1602 0 9.3711 4.1914 9.3711 9.375-0.003906 5.1797-4.2148 9.3711-9.375 9.3711z"/>
  <path d="m1104.5 158.49c-5.1797 0-9.4648-4.1914-9.4648-9.3711 0-5.1836 4.1016-9.375 9.2617-9.375h0.20313c5.1641 0 9.3711 4.1914 9.3711 9.375 0.003907 5.1758-4.207 9.3711-9.3711 9.3711z"/>
  <path d="m1064.7 198.25c-5.1797 0-9.4648-4.1914-9.4648-9.3711 0-5.1797 4.1016-9.3711 9.2617-9.3711h0.20312c5.1602 0 9.3711 4.1914 9.3711 9.3711 0.003907 5.1758-4.207 9.3711-9.3711 9.3711z"/>
  <path d="m130.48 1078.9c-2.3984 0-4.7969-0.91797-6.6289-2.7461-94.211-94.203-133.97-172.54-121.55-239.47 16.941-91.352 126.73-140.17 223.61-183.27l23.879-10.676c55.625-25.086 88.859-69.801 118.19-109.25 28.75-38.691 53.582-72.09 91.863-74.902 34.035-2.5898 74.883 21.035 127.95 74.105 3.6602 3.6602 3.6602 9.5938 0 13.254-3.6602 3.6602-9.5938 3.6602-13.254 0-48.246-48.246-85.227-70.875-113.34-68.656-29.711 2.1797-51.102 30.945-78.18 67.379-29.172 39.238-65.465 88.062-125.53 115.18l-23.973 10.707c-92.641 41.207-197.65 87.91-212.8 169.55-11.203 60.395 26.863 133.27 116.38 222.79 3.6602 3.6602 3.6602 9.5938 0 13.254-1.8242 1.8281-4.2227 2.7422-6.6211 2.7422z"/>
  <path d="m339.01 1199.9c-61.426 0.019531-132.12-40.715-215.15-123.75-3.6602-3.6602-3.6602-9.5938 0-13.254 3.6602-3.6602 9.5938-3.6602 13.254 0 89.52 89.52 162.43 127.56 222.79 116.38 81.648-15.156 128.35-120.14 169.55-212.8l10.719-23.98c27.102-60.062 75.945-96.344 115.2-125.51 36.43-27.074 65.188-48.457 67.367-78.168 2.0508-28.012-20.41-65.082-68.668-113.34-3.6602-3.6602-3.6602-9.582 0-13.246 3.6602-3.6602 9.5898-3.6602 13.25 0 53.07 53.062 76.613 93.719 74.105 127.95-2.7969 38.262-36.191 63.086-74.875 91.828-39.469 29.328-84.191 62.57-109.3 118.21l-10.664 23.875c-43.086 96.859-91.918 206.66-183.26 223.61-7.9414 1.4648-16.055 2.1953-24.316 2.1953z"/>
  <path d="m475.12 810c-22.746 0-44.129-8.8594-60.207-24.953-16.074-16.07-24.926-37.438-24.926-60.191 0-22.738 8.8594-44.117 24.945-60.195 16.07-16.07 37.445-24.934 60.191-24.934s44.129 8.8594 60.203 24.934c16.082 16.074 24.934 37.457 24.934 60.195 0 22.754-8.8516 44.117-24.934 60.191-16.078 16.094-37.461 24.953-60.207 24.953zm0-151.52c-17.727 0-34.406 6.8984-46.938 19.441-12.539 12.543-19.449 29.219-19.449 46.938 0 17.738 6.9023 34.398 19.434 46.938 25.082 25.082 68.824 25.082 93.906 0 12.539-12.539 19.441-29.199 19.441-46.938 0-17.723-6.9023-34.398-19.441-46.938-12.543-12.539-29.215-19.441-46.953-19.441z"/>
  <path d="m369.07 999.36c-2.4883 0-4.8711-0.98828-6.625-2.7461l-38.691-38.699-51.66-25.832c-1.8125-0.91797-3.2852-2.3828-4.1914-4.1914l-25.832-51.66-38.691-38.684c-1.7578-1.7578-2.7461-4.1367-2.7461-6.625s0.98828-4.8711 2.7461-6.625l26.516-26.512c3.6602-3.6602 9.5938-3.6602 13.254 0l159.07 159.07c1.7578 1.7578 2.7461 4.1406 2.7461 6.625 0 2.4883-0.98828 4.8711-2.7461 6.6289l-26.516 26.508c-1.7578 1.7578-4.1367 2.7461-6.6289 2.7461zm-85.801-82.652 50.234 25.117c0.89453 0.45703 1.7188 1.043 2.4336 1.7578l33.137 33.156 13.262-13.254-145.81-145.81-13.262 13.254 33.145 33.137c0.71094 0.71484 1.3086 1.5391 1.7578 2.4336z"/>
  <path d="m276.29 880.05c-2.3984 0-4.7969-0.91797-6.6289-2.7461-3.6602-3.6602-3.6602-9.5898 0-13.25l318.13-318.12c3.6602-3.6602 9.5938-3.6602 13.25 0 3.6641 3.6602 3.6641 9.5938 0 13.254l-318.13 318.12c-1.832 1.832-4.2266 2.7461-6.625 2.7461z"/>
  <path d="m302.8 906.57c-2.3984 0-4.7969-0.91797-6.625-2.7461-3.6602-3.6602-3.6602-9.5938 0-13.254l814.34-814.34c3.6602-3.6602 9.5938-3.6602 13.254 0s3.6602 9.5938 0 13.254l-814.34 814.34c-1.832 1.832-4.2305 2.75-6.6289 2.75z"/>
  <path d="m329.31 933.07c-2.3984 0-4.7969-0.91406-6.6289-2.7461-3.6602-3.6602-3.6602-9.5938 0-13.254l318.12-318.12c3.6602-3.6602 9.5938-3.6602 13.254 0 3.6602 3.6602 3.6602 9.5938 0 13.254l-318.12 318.12c-1.8281 1.8359-4.2266 2.7461-6.625 2.7461z"/>
  <path d="m594.42 561.93c-2.4531 0-4.9062-0.96094-6.7461-2.8672-3.5977-3.7227-3.4883-9.6641 0.23828-13.254l370.32-357.05c3.7148-3.5977 9.6484-3.4766 13.254 0.23828 3.5898 3.7227 3.4766 9.6641-0.25391 13.254l-370.3 357.05c-1.8242 1.7578-4.1641 2.6289-6.5078 2.6289z"/>
  <path d="m647.44 614.95c-2.3438 0-4.6875-0.87109-6.4961-2.6289-3.7344-3.5859-3.8477-9.5273-0.25391-13.254l357.05-370.3c3.6055-3.7148 9.5547-3.8164 13.254-0.23828 3.7344 3.5898 3.8477 9.5273 0.25391 13.254l-357.05 370.3c-1.8516 1.9062-4.3047 2.8672-6.7578 2.8672z"/>
  <path d="m1004.1 245.07c-2.3984 0-4.7969-0.91797-6.6289-2.7383-3.6602-3.6602-3.6602-9.5938 0-13.262 8.4922-8.5117 19.113-14.051 29.875-15.586 11.465-1.5664 22.41 1.6211 29.77 8.9609 3.6602 3.6602 3.6602 9.5938 0 13.254-3.6602 3.6602-9.5938 3.6602-13.254 0-4.2656-4.2656-10.453-4.1016-13.879-3.6523-6.6641 0.95312-13.672 4.6953-19.258 10.281-1.832 1.8242-4.2305 2.7422-6.625 2.7422z"/>
  <path d="m964.32 205.3c-2.3984 0-4.7969-0.91797-6.625-2.7344-3.6602-3.6602-3.6602-9.5938 0-13.262 10.766-10.785 13.805-25.969 6.625-33.16-3.6602-3.6602-3.6602-9.5938 0-13.254 3.6602-3.6406 9.5938-3.6602 13.254 0.019531 14.848 14.867 11.938 41.062-6.625 59.652-1.832 1.8203-4.2305 2.7383-6.6289 2.7383z"/>
  <path d="m970.95 158.89c-2.2539 0-4.5039-0.79688-6.3008-2.4258-3.8242-3.4688-4.1172-9.4023-0.66016-13.234l126.32-139.59c3.4766-3.8438 9.4492-4.1094 13.254-0.66016 3.8281 3.4688 4.1211 9.4023 0.66016 13.234l-126.32 139.59c-1.8477 2.043-4.4102 3.0859-6.9531 3.0859z"/>
  <path d="m1050.5 238.44c-2.5469 0-5.1055-1.043-6.957-3.0859-3.4609-3.8359-3.168-9.7656 0.66016-13.234l139.61-126.33c3.8281-3.4609 9.7578-3.1953 13.25 0.66016 3.4609 3.8359 3.168 9.7656-0.65625 13.234l-139.61 126.33c-1.793 1.6289-4.0469 2.4258-6.2969 2.4258z"/>
  <path d="m1190.1 112.11c-0.98828 0-1.9766-0.15625-2.9648-0.48438-4.9062-1.6289-7.5625-6.9375-5.9336-11.855v0.007813c-0.054688 0 2.4336-16.75-30.863-50.059-33.703-33.684-50.508-30.734-50.617-30.734-4.9414 1.6016-9.957-1.0898-11.586-6.0039-1.6484-4.9062 1.2812-10.297 6.1875-11.926 4.2305-1.4258 27.535-6.3164 69.273 35.414 41.738 41.738 36.812 64.996 35.402 69.238-1.3203 3.918-4.9805 6.4023-8.8984 6.4023z"/>
  <path d="m1103.9 238.02c-2.3945 0-4.7969-0.91406-6.625-2.7461l-25.152-25.152c-3.6602-3.6602-3.6602-9.5938 0-13.254 3.6602-3.6602 9.5938-3.6602 13.254 0l25.152 25.152c3.6602 3.6602 3.6602 9.5938 0 13.254-1.832 1.832-4.2305 2.7461-6.6289 2.7461z"/>
  <path d="m1097.3 244.64c-2.3984 0-4.7969-0.91797-6.6289-2.7461-3.6602-3.6602-3.6602-9.5938 0-13.254l13.254-13.254c3.6602-3.6602 9.5938-3.6602 13.254 0 3.6602 3.6602 3.6602 9.5938 0 13.254l-13.254 13.254c-1.8281 1.832-4.2266 2.7461-6.625 2.7461z"/>
  <path d="m1143.7 198.25c-2.3984 0-4.7969-0.91797-6.6289-2.7461l-23.176-23.195c-3.6602-3.6602-3.6602-9.6016 0-13.254 3.6602-3.6602 9.5938-3.6602 13.254 0l23.176 23.195c3.6602 3.6602 3.6602 9.6016 0 13.254-1.832 1.832-4.2305 2.7461-6.625 2.7461z"/>
  <path d="m1137 204.88c-2.3984 0-4.7969-0.91797-6.625-2.7461-3.6602-3.6602-3.6602-9.5938 0-13.254l13.254-13.254c3.6602-3.6602 9.5938-3.6602 13.25 0 3.6602 3.6602 3.6602 9.5938 0 13.254l-13.25 13.254c-1.832 1.8281-4.2305 2.7461-6.6289 2.7461z"/>
  <path d="m1176.8 165.12c-2.3945 0-4.7969-0.91797-6.625-2.7461-3.6602-3.6602-3.6602-9.5938 0-13.254l13.254-13.254c3.6602-3.6602 9.5938-3.6602 13.254 0 3.6602 3.6602 3.6602 9.5938 0 13.254l-13.254 13.254c-1.832 1.8281-4.2305 2.7461-6.6289 2.7461z"/>
  <path d="m1183.5 158.49c-2.3984 0-4.7969-0.91797-6.6289-2.7383l-21.238-21.199c-3.6602-3.6602-3.6602-9.5938 0-13.254 3.6602-3.6758 9.5938-3.6602 13.254-0.019531l21.238 21.199c3.6602 3.6602 3.6602 9.5938 0 13.254-1.8281 1.8438-4.2266 2.7578-6.625 2.7578z"/>
  <path d="m996.51 130.63c-2.3984 0-4.7969-0.91797-6.6289-2.7461l-25.152-25.152c-3.6602-3.6602-3.6602-9.5938 0-13.254 3.6602-3.6602 9.5938-3.6602 13.254 0l25.152 25.152c3.6602 3.6602 3.6602 9.5938 0 13.254-1.832 1.832-4.2305 2.7461-6.625 2.7461z"/>
  <path d="m964.73 112.11c-2.3984 0-4.7969-0.91797-6.625-2.7461-3.6602-3.6602-3.6602-9.5938 0-13.254l13.254-13.254c3.6602-3.6602 9.5938-3.6602 13.25 0 3.6602 3.6602 3.6602 9.5938 0 13.254l-13.25 13.254c-1.832 1.8281-4.2266 2.7461-6.6289 2.7461z"/>
  <path d="m1034.3 88.891c-2.3984 0-4.7969-0.91406-6.6289-2.7344l-23.211-23.176c-3.6602-3.6602-3.6602-9.5938 0-13.262 3.6602-3.6602 9.5938-3.6523 13.254-0.007812l23.211 23.176c3.6602 3.6602 3.6602 9.5938 0 13.262-1.8242 1.8281-4.2227 2.7422-6.625 2.7422z"/>
  <path d="m1004.5 72.344c-2.3984 0-4.7969-0.91797-6.6289-2.7461-3.6602-3.6602-3.6602-9.5938 0-13.254l13.254-13.254c3.6602-3.6602 9.5938-3.6602 13.254 0s3.6602 9.5938 0 13.254l-13.254 13.254c-1.832 1.8281-4.2305 2.7461-6.625 2.7461z"/>
  <path d="m1044.3 32.562c-2.3984 0-4.7969-0.91406-6.625-2.7461-3.6602-3.6602-3.6602-9.5938 0-13.254l13.25-13.254c3.6602-3.6602 9.5938-3.6602 13.254 0 3.6602 3.6602 3.6602 9.5938 0 13.254l-13.254 13.254c-1.832 1.8281-4.2266 2.7461-6.625 2.7461z"/>
  <path d="m1072.1 47.152c-2.3984 0-4.7969-0.91797-6.625-2.7461l-21.199-21.219c-3.6602-3.6602-3.6602-9.6016 0-13.254 3.6602-3.6602 9.5938-3.6602 13.254 0l21.199 21.219c3.6602 3.6602 3.6602 9.6016 0 13.254-1.832 1.8281-4.2305 2.7461-6.6289 2.7461z"/>
 </g>
</svg>
