<?xml version="1.0" encoding="UTF-8"?>
<svg width="1200pt" height="1200pt" version="1.1" viewBox="0 0 1200 1200" xmlns="http://www.w3.org/2000/svg" fill="current">
 <g>
  <path d="m1129.9 533.27c-2.7695-22.504-6.9844-44.805-12.621-66.762l-0.003906-0.007812-0.003906-0.011719c-5.918-22.695-13.297-44.984-22.082-66.73-2.2852-5.6719-4.6875-11.328-7.1992-16.969-2.5117-5.6367-5.1328-11.242-7.8633-16.824-5.4531-11.152-11.32-22.148-17.594-32.977l-0.007812-0.007812c-3.3359-5.8047-6.7969-11.555-10.375-17.254h0.003906c-27.258-43.301-60.621-82.441-99.062-116.21l-0.03125-0.027343-0.007812-0.007813h-0.003906v-0.003906c-28.898-25.66-60.555-48.039-94.387-66.723-71.684-39.645-151.55-62.215-233.38-65.957-8.3711-0.50781-16.785-0.80078-25.262-0.80078s-16.891 0.29297-25.262 0.80078c-81.824 3.7422-161.68 26.309-233.37 65.949-107.04 59.352-190.52 153.58-236.53 267-8.7891 21.754-16.172 44.051-22.094 66.758-5.6367 21.961-9.8516 44.262-12.621 66.766-5.5 44.316-5.5 89.145 0 133.46 2.7695 22.5 6.9844 44.801 12.621 66.762l0.007812 0.015625c5.918 22.695 13.297 44.984 22.082 66.73 2.293 5.6836 4.6953 11.344 7.2109 16.988 2.5156 5.6406 5.1367 11.25 7.8633 16.828 0.30078 0.61719 0.63672 1.2266 0.94141 1.8438 2.4453 4.9531 4.9414 9.8828 7.5469 14.766 2.9336 5.4961 5.9609 10.941 9.0898 16.344l0.007813 0.007812c3.3359 5.8047 6.7969 11.555 10.375 17.254 27.258 43.301 60.621 82.441 99.062 116.21l0.03125 0.027343 0.007812 0.007813h0.003906c7.1289 6.3438 14.449 12.5 21.969 18.465v0.003906c87.414 69.23 194.4 109.19 305.79 114.21 8.3672 0.51172 16.785 0.80078 25.262 0.80078s16.891-0.29297 25.262-0.80078c81.824-3.7422 161.68-26.309 233.37-65.949 107.04-59.352 190.52-153.58 236.53-267 8.7891-21.754 16.172-44.051 22.094-66.758 5.6367-21.961 9.8516-44.262 12.621-66.766 5.5-44.316 5.5-89.145 0-133.46zm-551.75-446.38c-6.543 14.473-11.551 29.594-14.941 45.113h-17.289c7.4531-17.137 18.434-32.512 32.23-45.113zm-116.08 519.11c0.050782 18.258 0.32031 36.258 0.80859 54h-53.539c-0.75-17.75-1.168-35.75-1.25-54zm-53.98-12c0.078125-18.238 0.49219-36.238 1.25-54h53.539c-0.49219 17.727-0.76172 35.727-0.80859 54zm55.172 78c0.61328 18.336 1.4531 36.336 2.5195 54h-52.062c-1.6172-17.66-2.8906-35.66-3.8203-54zm-48.367-210c1.8594-18.43 4.0781-36.43 6.6523-54h49.387c-1.6992 17.562-3.168 35.562-4.4102 54zm-3.3594-66h-48.973c3.918-18.598 8.4062-36.578 13.324-54h45.609c-3.6914 17.434-7.0117 35.434-9.9609 54zm-1.8125 12c-2.5977 17.582-4.8477 35.582-6.75 54h-51.723c2.5-18.43 5.4805-36.43 8.9414-54zm-7.9062 66c-1.6406 17.676-2.9336 35.676-3.8828 54h-53.391c1.2539-18.316 2.9648-36.316 5.1328-54zm-4.4648 66c-0.76172 17.754-1.1836 35.754-1.2656 54h-53.98c0.10156-18.238 0.66406-36.238 1.6836-54zm-1.2656 66c0.078124 18.234 0.5 36.234 1.2656 54h-53.562c-1.0078-17.75-1.5703-35.75-1.6836-54zm1.8477 66c0.94531 18.309 2.2422 36.309 3.8828 54h-52.141c-2.1719-17.66-3.8828-35.66-5.1328-54zm5.0391 66c1.8828 18.418 4.1328 36.418 6.75 54h-49.531c-3.4453-17.562-6.4258-35.562-8.9414-54zm8.5625 66c2.9414 18.551 6.2617 36.551 9.9609 54h-45.609c-4.918-17.422-9.4062-35.402-13.324-54zm60.598 0c1.9297 18.559 4.1016 36.602 6.5312 54h-45.438c-3.6602-17.422-6.9648-35.422-9.9141-54zm55.914-198c0.027344 17.434 0.17578 35.48 0.46094 54h-53.645c-0.48438-17.617-0.75-35.617-0.79688-54zm-53.977-12c0.050782-18.359 0.31641-36.359 0.79688-54h53.645c-0.28516 18.52-0.43359 36.566-0.46094 54zm1.1914 78h53.461c0.32422 17.727 0.76562 35.77 1.3398 54h-52.273c-1.0664-17.551-1.9062-35.551-2.5273-54zm53.461-144h-53.461c0.61719-18.441 1.457-36.441 2.5273-54h52.273c-0.57422 18.23-1.0156 36.273-1.3398 54zm-56.59-132h-48.82c2.9141-18.598 6.2227-36.598 9.9141-54h45.438c-2.4297 17.398-4.6016 35.441-6.5312 54zm-47.996-66h-44.836c5.6484-18.836 11.922-36.816 18.668-54h40.055c-5.0352 17.207-9.6641 35.207-13.887 54zm-56.906 0h-44.395c7.0977-18.836 14.973-36.816 23.441-54h39.328c-6.6602 17.207-12.785 35.207-18.379 54zm-19.074 78c-3.4375 17.582-6.4141 35.582-8.9336 54h-51.613c3.1406-18.43 6.8828-36.43 11.23-54zm-10.461 66c-2.1719 17.676-3.8828 35.676-5.1367 54h-53.371c1.5742-18.316 3.7227-36.316 6.4453-54zm-5.9141 66c-1.0078 17.754-1.5664 35.754-1.6719 54h-53.984c0.12891-18.238 0.83203-36.238 2.1133-54zm0.77344 132c1.2539 18.309 2.9648 36.309 5.1367 54h-52.059c-2.7266-17.66-4.875-35.66-6.4453-54zm17.996 132c3.8945 18.551 8.2891 36.551 13.184 54h-45.188c-6.1758-17.422-11.812-35.402-16.73-54zm28.75 66h44.836c4.2188 18.762 8.8477 36.762 13.887 54h-40.055c-6.7461-17.184-13.016-35.164-18.668-54zm99.207-132h51.953c0.61719 17.953 1.3555 36 2.2266 54h-49.727c-1.707-17.457-3.1914-35.457-4.4492-54zm51.953-276h-51.949c1.2422-18.555 2.7266-36.555 4.4492-54h49.734c-0.875 18-1.6133 36.047-2.2305 54zm-50.035-132h-44.656c4.2031-18.84 8.8359-36.84 13.891-54h39.961c-3.3438 17.176-6.4023 35.23-9.1914 54zm-38.797-66h-38.832c7.6523-18.473 16.332-36.5 26-54h32.09c-6.8789 16.828-13.297 34.828-19.258 54zm-51.246 0h-38.039c9.7305-18.672 20.633-36.711 32.652-54h30.879-0.003906c-9.4453 17.535-17.957 35.562-25.492 54zm-51.254 0h-37.242c11.859-18.875 24.988-36.914 39.305-54h29.664c-11.648 17.348-22.242 35.379-31.727 54zm-5.9375 12c-8.293 17.207-15.918 35.207-22.875 54h-43.945c8.4102-18.504 17.828-36.531 28.219-54zm-27.219 66c-6.0781 17.434-11.547 35.434-16.406 54h-48.496c5.9219-18.598 12.707-36.578 20.141-54zm-19.387 66c-4.2773 17.582-7.9844 35.582-11.117 54h-51.5c3.7812-18.43 8.2852-36.43 13.516-54zm-13.02 66c-2.7031 17.676-4.832 35.676-6.3945 54h-53.344c1.8984-18.316 4.4844-36.316 7.7578-54zm-7.3555 66c-1.2539 17.754-1.9492 35.754-2.082 54h-53.984c0.15625-18.238 1.0039-36.238 2.543-54zm-2.082 66c0.12891 18.234 0.82031 36.234 2.082 54h-53.523c-1.5273-17.75-2.3711-35.75-2.543-54zm3.043 66c1.5625 18.309 3.6914 36.309 6.3945 54h-51.98c-3.2852-17.66-5.8711-35.66-7.7578-54zm8.3008 66c3.1016 18.418 6.8086 36.418 11.117 54h-49.105c-5.2109-17.562-9.7148-35.562-13.516-54zm34.852 132c6.9492 18.762 14.574 36.762 22.875 54h-38.609c-10.391-17.469-19.809-35.496-28.219-54zm42.02 66h38.035c7.5352 18.438 16.047 36.465 25.492 54h-30.875c-12.02-17.289-22.922-35.328-32.652-54zm100.91 0h38.793c3.9609 19.168 8.2539 37.168 12.875 54h-32.316c-6.918-16.719-13.383-34.762-19.352-54zm37.551-78c-2.4492-17.277-4.6406-35.336-6.6055-54h49.102c0.94141 18.176 2.0156 36.227 3.2305 54zm42.496-462h-49.102c1.9648-18.664 4.1562-36.723 6.6055-54h45.727c-1.2188 17.773-2.293 35.824-3.2305 54zm-80.047-132c5.9688-19.238 12.434-37.281 19.348-54h32.316c-4.6094 16.805-8.8984 34.805-12.875 54zm24.441-66c8.1875-18.762 17.898-36.824 29.039-54h20.512c-7.332 17.625-13.652 35.656-18.93 54zm-11.723 0h-30.328c11.297-19.172 24.363-37.25 39.016-54h19.32c-10.633 17.297-19.992 35.344-28.008 54zm-43.371 0h-29.012c14.535-19.551 30.949-37.637 49-54h17.082c-13.832 16.941-26.23 35.004-37.07 54zm-43.371 0h-27.695 0.003906c17.852-19.879 37.609-37.965 58.98-54h14.844c-16.93 16.613-32.367 34.684-46.133 54zm-43.371 0h-26.375c21.223-20.148 44.312-38.23 68.961-54h12.609c-19.965 16.328-38.434 34.398-55.195 54zm-55.078 78c-10.07 17.504-19.203 35.531-27.367 54h-43.508c9.9141-18.641 20.934-36.672 32.992-54zm-32.566 66c-7.2773 17.434-13.82 35.434-19.633 54h-48.262c6.8867-18.406 14.746-36.43 23.551-54zm-23.195 66c-5.1172 17.582-9.5508 35.582-13.301 54h-51.395c4.4219-18.43 9.6875-36.43 15.805-54zm-24.383 132c-1.5039 17.754-2.332 35.754-2.4922 54h-53.98c0.18359-18.238 1.1719-36.238 2.9727-54zm1.1523 132c1.8672 18.309 4.418 36.309 7.6484 54h-51.895c-3.8398-17.66-6.8633-35.66-9.0703-54zm26.797 132c5.7969 18.551 12.34 36.551 19.629 54h-44.344c-8.8047-17.57-16.664-35.594-23.551-54zm59.301 132h-0.003907c11.473 18.801 24.152 36.84 37.957 54h-28.453c-16.574-16.895-31.93-34.938-45.953-54zm63.656 66h27.688c13.766 19.316 29.203 37.387 46.133 54h-14.844c-21.375-16.035-41.129-34.121-58.98-54zm84.105 0h30.328-0.003906c8.0156 18.656 17.375 36.703 28.012 54h-19.32c-14.656-16.75-27.719-34.828-39.02-54zm85.305 0h30.07c2.8594 19.727 6.0234 37.855 9.4922 54h-20.156c-7.5508-17.594-14.035-35.625-19.41-54zm-3.4766-12c-4.6367-16.617-9-34.617-13.078-54h38.656c1.8984 18.844 3.9883 36.941 6.2891 54zm-15.559-66c-3.3672-17.039-6.4727-35.105-9.3203-54h44.785c1.3398 18.438 2.8281 36.508 4.4883 54zm-9.3203-594c2.8516-18.895 5.9531-36.961 9.3203-54h39.953c-1.6562 17.492-3.1484 35.562-4.4883 54zm11.793-66c4.0664-19.355 8.4258-37.355 13.078-54h31.875c-2.3008 17.059-4.3906 35.156-6.2891 54zm16.555-66h0.003907c5.375-18.375 11.859-36.406 19.41-54h20.152c-3.4688 16.145-6.6328 34.273-9.4922 54zm36.418-106.85h0.003907c-9.8789 12.559-18.191 26.277-24.75 40.848h-17.504c11.402-16.141 25.738-29.996 42.254-40.848zm-55.457 40.848h-15.988c13.703-14 29.32-25.992 46.379-35.617-11.395 10.73-21.582 22.676-30.391 35.617zm-31.746 0h-13.43c14.195-11.43 29.508-21.398 45.707-29.754-11.594 8.9727-22.395 18.926-32.277 29.754zm-31.746 0h-10.875c13.137-8.7422 26.859-16.566 41.07-23.426-10.535 7.1797-20.621 15.004-30.195 23.426zm-5.1719-17.676c-9.0312 5.4922-17.914 11.336-26.574 17.676h-8.3242c11.371-6.4453 23.004-12.34 34.898-17.676zm-38.395 5.8594c-6.7344 3.7656-13.375 7.7031-19.926 11.82h-5.8477c8.4805-4.1992 17.082-8.1055 25.773-11.824zm-118.59 70.371c3.0352-2.4102 6.2227-4.6523 9.3203-7 4.3555-3.3008 8.6484-6.6641 13.121-9.832 3.3398-2.3633 6.8242-4.5508 10.223-6.8398 4.4023-2.9609 8.7422-5.9922 13.246-8.8242 3.375-2.1211 6.875-4.0664 10.305-6.1133 4.4727-2.6719 8.9062-5.4023 13.469-7.9414l10.797-0.003906c-22.953 16.09-44.453 34.156-64.254 54h-25.078c2.9648-2.4688 5.8281-5.0391 8.8516-7.4453zm-69.422 66.059c1.6172-1.8516 3.3281-3.625 4.9727-5.4531 3.3359-3.707 6.6562-7.4297 10.098-11.039 2.043-2.1406 4.1758-4.1875 6.2539-6.2891 3.1562-3.1914 6.2812-6.4141 9.5156-9.5156 2.2695-2.1797 4.6211-4.2539 6.9297-6.3867 2.875-2.6602 5.7344-5.3398 8.668-7.9258h27.539l0.007813-0.003906c-15.93 16.984-30.691 35.027-44.188 54h-35.969c2.0664-2.457 4.0625-4.9648 6.1758-7.3867zm-39.367 51.141c0.30859-0.45312 0.59375-0.92188 0.89844-1.375 6.7148-9.8594 13.82-19.473 21.207-28.836 0.40234-0.51172 0.78906-1.0352 1.1953-1.5469h37.59l0.003907 0.003906c-11.648 17.375-22.285 35.406-31.863 54h-42.961c4.5156-7.4805 9.0156-14.973 13.934-22.242zm-37.086 64.207c1.6953-3.4805 3.6523-6.8477 5.4297-10.297 3.4023-6.5977 6.8008-13.199 10.492-19.664h44.141c-8.5391 17.594-16.168 35.617-22.848 54h-47.93c3.418-8.0508 6.8516-16.105 10.715-24.039zm-26.504 65.465c1.125-3.4258 2.4688-6.7539 3.6641-10.152 2.2734-6.4688 4.5664-12.926 7.0781-19.273h48.824c-5.957 17.582-11.16 35.582-15.484 54h-51.348c2.2734-8.2266 4.5938-16.453 7.2656-24.574zm-16.867 65.578c0.65234-3.4766 1.5117-6.8945 2.2305-10.355 1.3008-6.2461 2.625-12.48 4.1523-18.648h51.914c-3.7617 17.676-6.7305 35.676-8.9062 54h-53.293c1.1406-8.3477 2.3516-16.695 3.9023-24.996zm-8.0078 65.797c0.20703-3.4805 0.61328-6.9844 0.88672-10.473 0.48047-6.1055 1-12.211 1.6836-18.328h53.484c-1.75 17.754-2.7148 35.754-2.8984 54h-53.945c0.097656-8.3477 0.28516-16.73 0.78906-25.199zm2.5703 91.199c-0.6875-6.1094-1.2031-12.207-1.6836-18.301-0.27734-3.5-0.68359-7.0117-0.89062-10.504-0.50391-8.4688-0.69141-16.852-0.78906-25.199h53.945c0.17578 18.234 1.1445 36.234 2.8984 54zm26.043 112.95c-1.2227-3.4727-2.5898-6.875-3.7422-10.379-2.6719-8.1211-4.9883-16.344-7.2617-24.566h51.348c4.3242 18.418 9.5234 36.418 15.484 54h-48.832c-2.4805-6.2734-4.7461-12.664-6.9961-19.055zm82.008 149.57c-7.4023-9.3906-14.527-19.023-21.258-28.91-0.30469-0.44922-0.58594-0.90625-0.88672-1.3555-4.918-7.2734-9.418-14.77-13.934-22.254h42.957v0.003906c9.5742 18.594 20.215 36.625 31.859 54h-37.594c-0.39063-0.48828-0.75781-0.99219-1.1445-1.4844zm156.32 133.48c-4.5195-2.5156-8.9102-5.2227-13.344-7.8672-3.4727-2.0742-7.0195-4.043-10.438-6.1953-4.4609-2.8047-8.7656-5.8125-13.125-8.7461-3.4414-2.3164-6.9688-4.5273-10.348-6.9258-4.5312-3.2109-8.8867-6.6211-13.301-9.9688-3.0352-2.3008-6.1602-4.5-9.1367-6.8633-3.0234-2.4023-5.8828-4.9688-8.8438-7.4375l25.078 0.003906c19.801 19.84 41.301 37.91 64.254 54zm23.129 12h5.8477c6.5469 4.1172 13.188 8.0547 19.922 11.816-8.6914-3.7148-17.293-7.6211-25.77-11.816zm29.27 0h8.3242c8.6602 6.3398 17.543 12.184 26.574 17.676-11.879-5.3633-23.508-11.254-34.898-17.676zm29.191 0h10.879c9.5742 8.4219 19.66 16.246 30.195 23.426-14.211-6.8594-27.934-14.684-41.07-23.426zm29.191 0h13.434c9.8828 10.828 20.684 20.781 32.277 29.754-16.199-8.3555-31.512-18.324-45.707-29.754zm58.383 0h17.508c6.5586 14.57 14.871 28.289 24.75 40.848-16.516-10.852-30.852-24.707-42.254-40.848zm78.922 50.301c-9.418-15.391-15.723-32.48-18.551-50.301h18.551zm0-128.3h-32.332c-2.2773-16.57-4.4336-34.57-6.4688-54h38.801zm0-132h-45.57c-1.2266-17.25-2.332-35.25-3.3242-54h48.895zm0-66h-49.523c-0.85547-17.395-1.5938-35.395-2.2188-54h51.742zm0-66h-52.117c-0.53125-17.504-0.95703-35.504-1.2656-54h53.383zm0-132h-53.98c0.023438-18.398 0.14844-36.434 0.39062-54h53.59zm0-66h-53.383c0.30859-18.488 0.73047-36.488 1.2656-54h52.117zm0-66h-51.742c0.625-18.582 1.3633-36.582 2.2188-54h49.523zm0-66h-48.895c0.98828-18.73 2.0977-36.73 3.3242-54h45.57zm0-66h-44.695c1.4336-18.969 2.9883-36.969 4.6641-54h40.031zm0-66h-38.805c2.0273-19.414 4.1836-37.414 6.4688-54h32.336zm0-66h-30.637c3.0078-20.488 6.1719-38.551 9.4219-54h21.215zm0-66h-18.551c2.8281-17.82 9.1328-34.91 18.551-50.301zm516.81 360.75c0.71094 3.4258 1.5664 6.8086 2.207 10.246 1.5508 8.3047 2.7617 16.656 3.9023 25.004h-53.293c-2.1719-18.309-5.1406-36.309-8.9062-54h51.91c1.5391 6.2031 2.8711 12.469 4.1797 18.75zm-122.49-30.75c-3.7148-18.418-8.1484-36.418-13.301-54h48.887c6.0898 17.562 11.359 35.562 15.805 54zm54.172 12c3.8398 17.66 6.8633 35.66 9.0703 54h-53.316c-1.8672-18.309-4.418-36.309-7.6484-54zm-117.93-12c-3.1016-18.418-6.8086-36.418-11.117-54h49.102c5.2109 17.562 9.7148 35.562 13.516 54zm53.883 12c3.2852 17.66 5.8711 35.66 7.7578 54h-53.344c-1.5625-18.309-3.6914-36.309-6.3945-54zm-117.64-12c-2.4922-18.418-5.4727-36.418-8.9336-54h49.316c4.3281 17.562 8.0703 35.562 11.23 54zm53.59 12c2.7266 17.66 4.875 35.66 6.4453 54h-53.367c-1.2539-18.309-2.9648-36.309-5.1367-54zm-117.34-12c-1.8828-18.418-4.1328-36.418-6.75-54h49.531c3.4453 17.562 6.4258 35.562 8.9414 54zm53.301 12c2.1719 17.66 3.8828 35.66 5.1328 54h-53.395c-0.94531-18.309-2.2422-36.309-3.8828-54zm-113.59 198h53.363c-0.93359 18.316-2.207 36.316-3.8203 54h-52.062c1.0664-17.652 1.9062-35.652 2.5195-54zm-2.5195-198h52.062c1.6172 17.66 2.8906 35.66 3.8203 54h-53.363c-0.61328-18.336-1.4531-36.336-2.5195-54zm2.9023 186c0.49219-17.727 0.76172-35.727 0.80859-54h53.984c-0.078124 18.238-0.49219 36.238-1.25 54zm0.80859-66c-0.050782-18.258-0.32031-36.258-0.80859-54h53.539c0.75 17.75 1.168 35.75 1.25 54zm50.535-198c-2.9414-18.551-6.2617-36.551-9.9609-54h45.609c4.918 17.422 9.4062 35.402 13.324 54zm-3.3594 66h-51.629c-1.2266-18.445-2.6992-36.445-4.4102-54h49.387c2.5664 17.562 4.7852 35.562 6.6523 54zm-57.238-66c-1.9297-18.559-4.1016-36.602-6.5312-54h45.438c3.6602 17.422 6.9648 35.422 9.9141 54zm-55.914 198c-0.027344-17.434-0.17578-35.48-0.46094-54h53.645c0.48438 17.617 0.75 35.617 0.79688 54zm53.977 12c-0.050782 18.359-0.31641 36.359-0.79688 54h-53.645c0.28516-18.52 0.43359-36.566 0.46094-54zm-1.1914-78h-53.461c-0.32422-17.727-0.76562-35.77-1.3398-54h52.273c1.0664 17.551 1.9062 35.551 2.5273 54zm-53.461 144h53.461c-0.61719 18.441-1.457 36.441-2.5273 54h-52.273c0.57422-18.23 1.0156-36.273 1.3398-54zm56.586 132h48.824c-2.9141 18.598-6.2227 36.598-9.9141 54h-45.438c2.4297-17.398 4.6016-35.441 6.5312-54zm1.2031-12c1.6992-17.562 3.168-35.562 4.4102-54h51.629c-1.8594 18.43-4.0781 36.43-6.6523 54zm59.398 12h48.973c-3.918 18.598-8.4062 36.578-13.324 54h-45.609c3.6914-17.434 7.0117-35.434 9.9609-54zm1.8125-12c2.5977-17.582 4.8477-35.582 6.75-54h51.727c-2.5 18.43-5.4805 36.43-8.9414 54zm7.9062-66c1.6406-17.676 2.9336-35.676 3.8828-54h53.395c-1.2539 18.316-2.9648 36.316-5.1328 54zm4.4648-66c0.76172-17.754 1.1836-35.754 1.2656-54h53.984c-0.10156 18.238-0.66406 36.238-1.6836 54zm1.2656-66c-0.078124-18.234-0.5-36.234-1.2656-54h53.566c1.0078 17.75 1.5703 35.75 1.6836 54zm45.535-198c-3.8945-18.551-8.2891-36.551-13.184-54h45.188c6.1758 17.422 11.812 35.402 16.73 54zm-16.676-66c-5.582-18.762-11.711-36.762-18.383-54h39.332c8.4727 17.184 16.348 35.164 23.441 54zm-12.074 0h-44.836c-4.2188-18.762-8.8477-36.762-13.887-54h40.055c6.7461 17.184 13.016 35.164 18.668 54zm-56.465 0h-44.664c-2.7891-18.77-5.8477-36.824-9.1914-54h39.961c5.0195 17.184 9.6523 35.184 13.891 54zm-42.742 132h-51.957c-0.61719-17.953-1.3555-36-2.2266-54h49.73c1.707 17.457 3.1914 35.457 4.4492 54zm-1.918 408h44.66c-4.2031 18.84-8.8359 36.84-13.891 54h-39.961c3.3398-17.176 6.3984-35.23 9.1875-54zm113.2 0h44.391c-7.0977 18.836-14.973 36.816-23.441 54h-39.336c6.6641-17.207 12.789-35.207 18.383-54zm3.4922-12c4.8789-17.434 9.2734-35.434 13.18-54h48.734c-4.9219 18.598-10.555 36.578-16.73 54zm15.574-66c3.4375-17.582 6.4141-35.582 8.9336-54h51.613c-3.1406 18.43-6.8828 36.43-11.23 54zm10.461-66c2.1719-17.676 3.8828-35.676 5.1367-54h53.367c-1.5703 18.316-3.7188 36.316-6.4414 54zm5.9102-66c1.0078-17.754 1.5664-35.754 1.6719-54h53.984c-0.12891 18.238-0.83203 36.238-2.1133 54zm1.6719-66c-0.10156-18.234-0.66016-36.234-1.6719-54h53.543c1.2695 17.75 1.9727 35.75 2.1133 54zm40.547-198c-4.8438-18.551-10.312-36.551-16.406-54h44.766c7.4336 17.422 14.219 35.402 20.141 54zm-20.754-66c-6.9492-18.762-14.574-36.762-22.875-54h38.605c10.391 17.469 19.809 35.496 28.219 54zm-28.809-66c-9.4844-18.621-20.078-36.652-31.727-54h29.664c14.316 17.086 27.445 35.125 39.305 54zm-13.211 0h-38.039c-7.5352-18.438-16.047-36.465-25.492-54h30.879-0.003906c12.02 17.289 22.922 35.328 32.652 54zm-50.457 0h-38.832c-5.9414-19.152-12.359-37.152-19.262-54h32.094c9.668 17.5 18.348 35.527 26 54zm-50.457 0h-38.789c-3.9609-19.168-8.2539-37.168-12.875-54h32.316c6.9141 16.719 13.379 34.762 19.348 54zm-37.551 78c2.4492 17.277 4.6406 35.336 6.6055 54h-49.102c-0.94141-18.176-2.0156-36.227-3.2305-54zm-42.496 462h49.098c-1.9648 18.664-4.1562 36.723-6.6055 54h-45.723c1.2188-17.773 2.293-35.824 3.2305-54zm80.047 132c-5.9688 19.238-12.434 37.281-19.348 54h-32.316c4.6094-16.805 8.8984-34.805 12.875-54zm11.625 0h38.832c-7.6523 18.473-16.332 36.5-26 54h-32.094c6.8828-16.828 13.301-34.828 19.262-54zm51.246 0h38.039c-9.7305 18.672-20.637 36.711-32.652 54h-30.875c9.4453-17.535 17.957-35.562 25.492-54zm51.25 0h37.246c-11.859 18.875-24.988 36.914-39.305 54h-29.664c11.648-17.348 22.242-35.379 31.727-54zm5.9375-12c8.293-17.207 15.918-35.207 22.875-54h43.949c-8.4102 18.504-17.828 36.531-28.219 54zm27.219-66c6.0781-17.434 11.547-35.434 16.406-54h48.496c-5.9219 18.598-12.707 36.578-20.141 54zm19.391-66c4.2773-17.582 7.9844-35.582 11.117-54h51.5c-3.7812 18.43-8.2852 36.43-13.516 54zm13.02-66c2.7031-17.676 4.832-35.676 6.3945-54h53.34c-1.8984 18.316-4.4844 36.316-7.7578 54zm7.3555-66c1.2539-17.754 1.9492-35.754 2.082-54h53.984c-0.15625 18.238-1.0039 36.238-2.543 54zm2.082-66c-0.12891-18.234-0.82031-36.234-2.082-54h53.523c1.5273 17.75 2.3711 35.75 2.543 54zm35.547-198c-5.7969-18.551-12.34-36.551-19.629-54h44.34c8.8047 17.57 16.664 35.594 23.551 54zm-24.828-66h-0.003906c-8.1641-18.469-17.297-36.496-27.367-54h37.883c12.059 17.328 23.078 35.359 32.992 54zm-34.473-66c-11.473-18.801-24.152-36.84-37.957-54h28.453c16.574 16.895 31.93 34.938 45.953 54zm-47.977-66c-16.762-19.602-35.23-37.672-55.195-54h12.609c24.648 15.77 47.738 33.852 68.961 54zm-15.68 0h-27.691c-13.766-19.316-29.203-37.387-46.133-54h14.844c21.375 16.035 41.129 34.121 58.98 54zm-42.051 0h-29.012c-10.84-18.996-23.242-37.059-37.07-54h17.082c18.051 16.363 34.465 34.449 49 54zm-42.055 0h-30.328c-8.0156-18.656-17.375-36.703-28.012-54h19.32c14.656 16.75 27.719 34.828 39.02 54zm-42.051 0h-30.621c-5.2773-18.344-11.598-36.375-18.93-54h20.512c11.141 17.176 20.852 35.238 29.039 54zm-43.25 0h-30.07c-2.8594-19.727-6.0234-37.855-9.4922-54h20.152-0.003906c7.5508 17.594 14.035 35.625 19.41 54zm3.4766 12c4.6367 16.617 9 34.617 13.078 54h-38.664c-1.8984-18.844-3.9883-36.941-6.2891-54zm15.551 66c3.3672 17.039 6.4727 35.105 9.3203 54h-44.785c-1.3398-18.438-2.8281-36.508-4.4883-54zm9.3203 594c-2.8516 18.895-5.9531 36.961-9.3203 54h-39.949c1.6562-17.492 3.1484-35.562 4.4883-54zm-11.793 66c-4.0664 19.355-8.4258 37.355-13.078 54h-31.875c2.3008-17.059 4.3906-35.156 6.2891-54zm-3.9258 66h30.621c-8.1875 18.762-17.898 36.824-29.039 54h-20.512c7.332-17.625 13.652-35.656 18.93-54zm42.344 0h30.328c-11.297 19.172-24.363 37.25-39.016 54h-19.32c10.633-17.297 19.992-35.344 28.008-54zm43.371 0h29.012c-14.535 19.551-30.949 37.637-49 54h-17.082c13.828-16.941 26.23-35.004 37.07-54zm86.742 0h26.375c-21.223 20.148-44.312 38.23-68.961 54h-12.609c19.965-16.328 38.434-34.398 55.195-54zm10.02-12c13.805-17.16 26.484-35.199 37.957-54h36.449c-14.023 19.062-29.379 37.105-45.953 54zm45.059-66c10.07-17.504 19.203-35.531 27.367-54h43.508c-9.9141 18.641-20.934 36.672-32.992 54zm32.566-66c7.2734-17.434 13.816-35.434 19.629-54h48.266c-6.8867 18.406-14.746 36.43-23.551 54zm23.195-66c5.1172-17.582 9.5508-35.582 13.301-54h51.391c-4.4219 18.43-9.6875 36.43-15.805 54zm15.578-66c3.2305-17.676 5.7812-35.676 7.6484-54h53.316c-2.2188 18.316-5.2422 36.316-9.0703 54zm8.8047-66c1.5039-17.754 2.332-35.754 2.4922-54h53.98c-0.18359 18.238-1.1719 36.238-2.9727 54zm2.4922-66c-0.15234-18.234-0.98047-36.234-2.4922-54h53.5c1.7852 17.75 2.7734 35.75 2.9727 54zm90.523-166.95c1.2227 3.4727 2.5898 6.875 3.7422 10.379 2.6719 8.1211 4.9883 16.344 7.2617 24.566h-51.348c-4.3242-18.418-9.5234-36.418-15.484-54h48.828c2.4844 6.2734 4.75 12.664 7 19.055zm-38.688-85.055c3.7227 6.5234 7.1562 13.176 10.586 19.832 1.75 3.3945 3.6797 6.7148 5.3477 10.141 3.8633 7.9336 7.293 15.98 10.707 24.027h-47.934c-6.6797-18.383-14.309-36.406-22.852-54zm-43.32-64.516c7.4023 9.3906 14.527 19.023 21.258 28.91 0.30469 0.44922 0.58594 0.90625 0.88672 1.3555 4.918 7.2734 9.418 14.77 13.934 22.254l-42.953-0.003906c-9.5781-18.594-20.215-36.625-31.863-54h37.594c0.39063 0.48828 0.75781 0.99219 1.1445 1.4844zm-55.234-59.785c2.4023 2.2188 4.8516 4.3828 7.2148 6.6523 3.0508 2.9297 6 5.9727 8.9844 8.9844 2.2578 2.2812 4.5703 4.5039 6.7891 6.8281 3.1367 3.2852 6.1523 6.6875 9.1992 10.055 1.9492 2.1523 3.957 4.25 5.8711 6.4375 2.1016 2.4062 4.0859 4.9023 6.1406 7.3438h-35.973c-13.496-18.973-28.258-37.016-44.188-54h27.543c2.8477 2.5117 5.6211 5.1172 8.418 7.6992zm-101.08-73.699c4.7305 2.6367 9.3281 5.4609 13.965 8.2344 3.25 1.9453 6.5742 3.7852 9.7734 5.7969 5.1094 3.2148 10.055 6.6367 15.035 10.02 2.793 1.8945 5.668 3.6875 8.418 5.6328 5.6289 3.9844 11.07 8.1797 16.512 12.375 1.9609 1.5117 4.0039 2.9258 5.9375 4.4609 3.043 2.4141 5.9141 4.9961 8.8945 7.4766l-25.078 0.003906c-19.801-19.844-41.301-37.91-64.254-54zm-23.129-12h-5.8477c-6.5469-4.1172-13.188-8.0547-19.922-11.816 8.6914 3.7148 17.293 7.6211 25.77 11.816zm-29.27 0h-8.3242c-8.6602-6.3398-17.543-12.184-26.574-17.676 11.879 5.3633 23.508 11.254 34.898 17.676zm-29.191 0h-10.879c-9.5742-8.4219-19.656-16.242-30.191-23.422 14.207 6.8555 27.93 14.684 41.066 23.422zm-29.191 0h-13.434c-9.8828-10.828-20.684-20.781-32.277-29.754 16.199 8.3555 31.512 18.324 45.707 29.754zm-29.191 0h-15.988c-8.8086-12.941-18.996-24.887-30.391-35.617 17.059 9.625 32.676 21.617 46.379 35.617zm-29.195 0h-17.504c-6.5586-14.57-14.871-28.289-24.75-40.848 16.516 10.852 30.852 24.707 42.254 40.848zm-30.809 0h-17.289c-3.3906-15.52-8.3984-30.641-14.941-45.113 13.797 12.602 24.777 27.977 32.23 45.113zm-48.109-50.301c9.418 15.391 15.723 32.48 18.551 50.301h-18.551zm0 62.301h21.219c3.25 15.449 6.4141 33.512 9.4219 54h-30.641zm0 66h32.332c2.2773 16.57 4.4336 34.57 6.4688 54h-38.801zm0 66h40.027c1.6758 17.008 3.2305 35.008 4.6641 54h-44.691zm0 66h45.57c1.2266 17.25 2.332 35.25 3.3242 54h-48.895zm0 66h49.523c0.85547 17.395 1.5938 35.395 2.2188 54h-51.742zm0 66h52.117c0.53125 17.504 0.95703 35.504 1.2656 54h-53.383zm0 66h53.586c0.24219 17.566 0.36719 35.602 0.39062 54h-53.977zm0 66h53.98c-0.023438 18.398-0.14844 36.434-0.39062 54h-53.59zm0 66h53.383c-0.30859 18.488-0.73047 36.488-1.2656 54h-52.117zm0 66h51.742c-0.625 18.582-1.3633 36.582-2.2188 54h-49.523zm0 66h48.895c-0.98828 18.73-2.0977 36.73-3.3242 54h-45.57zm0 66h44.695c-1.4336 18.969-2.9883 36.969-4.6641 54h-40.031zm0 66h38.805c-2.0273 19.414-4.1836 37.414-6.4688 54h-32.336zm0 66h30.637c-3.0078 20.488-6.1719 38.551-9.4219 54h-21.215zm0 66h18.551c-2.8281 17.82-9.1328 34.91-18.551 50.301zm15.879 45.113c6.543-14.473 11.551-29.594 14.941-45.113h17.289c-7.4531 17.137-18.434 32.512-32.23 45.113zm20.785-4.2656c9.8789-12.559 18.191-26.277 24.75-40.848h17.504c-11.402 16.141-25.738 29.996-42.254 40.848zm55.461-40.848h15.988-0.003906c-13.699 14-29.316 25.992-46.375 35.617 11.395-10.73 21.582-22.676 30.391-35.617zm31.746 0h13.43c-14.195 11.43-29.508 21.398-45.707 29.754 11.594-8.9727 22.395-18.926 32.277-29.754zm31.746 0h10.875c-13.137 8.7383-26.859 16.566-41.066 23.422 10.535-7.1797 20.617-15 30.191-23.422zm5.1719 17.676c9.0312-5.4922 17.914-11.336 26.574-17.676h8.3242c-11.371 6.4453-23.004 12.34-34.898 17.676zm38.395-5.8594c6.7344-3.7656 13.375-7.7031 19.926-11.82h5.8477c-8.4805 4.1992-17.082 8.1055-25.773 11.824zm118.54-70.332c-1.9961 1.5859-4.1055 3.0469-6.125 4.6016-5.3789 4.1406-10.758 8.293-16.324 12.23-2.7031 1.9102-5.5273 3.668-8.2695 5.5312-5.0273 3.4141-10.023 6.8711-15.184 10.117-3.1367 1.9727-6.3984 3.7773-9.5859 5.6875-4.6914 2.8125-9.3516 5.6719-14.145 8.3438l-10.797 0.003906c22.953-16.09 44.453-34.156 64.254-54h25.078c-2.9805 2.4844-5.8594 5.0664-8.9062 7.4844zm69.473-66.102c-1.6172 1.8516-3.3281 3.625-4.9727 5.4531-3.3359 3.707-6.6562 7.4297-10.098 11.039-2.043 2.1406-4.1758 4.1875-6.2539 6.2891-3.1562 3.1914-6.2812 6.4141-9.5156 9.5156-2.2695 2.1797-4.6211 4.2539-6.9297 6.3867-2.875 2.6602-5.7344 5.3398-8.668 7.9258l-27.547 0.007812c15.93-16.984 30.691-35.027 44.188-54h35.969c-2.0664 2.457-4.0625 4.9648-6.1758 7.3867zm39.367-51.141c-0.30859 0.45312-0.59375 0.92187-0.89844 1.375-6.7148 9.8594-13.82 19.473-21.207 28.836-0.40234 0.51172-0.78906 1.0352-1.1953 1.5469h-37.594c11.645-17.375 22.285-35.406 31.859-54h42.961c-4.5117 7.4805-9.0117 14.973-13.93 22.242zm37.094-64.215c-1.6758 3.4375-3.6133 6.7695-5.3672 10.18-3.4219 6.6406-6.8438 13.281-10.562 19.789l-44.145 0.003906c8.543-17.594 16.172-35.617 22.852-54h47.926c-3.4102 8.043-6.8398 16.09-10.707 24.027zm26.5-65.457c-1.125 3.4258-2.4688 6.7539-3.6641 10.152-2.2734 6.4688-4.5664 12.926-7.0781 19.273l-48.824 0.003906c5.957-17.582 11.16-35.582 15.484-54h51.348c-2.2773 8.2266-4.5977 16.453-7.2695 24.574zm16.863-65.574c-0.65234 3.4766-1.5117 6.8945-2.2305 10.355-1.3008 6.2461-2.625 12.48-4.1523 18.648h-51.914c3.7617-17.676 6.7305-35.676 8.9062-54h53.293c-1.1406 8.3477-2.3516 16.695-3.9023 24.996zm8.0078-65.797c-0.20703 3.4805-0.61328 6.9844-0.88672 10.473-0.48047 6.1055-1 12.211-1.6836 18.328h-53.484c1.75-17.754 2.7148-35.754 2.8984-54h53.945c-0.097656 8.3477-0.28516 16.73-0.78906 25.199zm-53.156-37.199c-0.17578-18.234-1.1445-36.234-2.8984-54h53.488c0.6875 6.1094 1.2031 12.207 1.6836 18.301 0.27734 3.5 0.68359 7.0117 0.89062 10.504 0.50391 8.4688 0.69141 16.852 0.78906 25.199z"/>
  <path d="m1128 1056c-15.906-0.019531-31.156-6.3477-42.406-17.594-11.246-11.25-17.574-26.5-17.594-42.406 0-3.3125-2.6875-6-6-6s-6 2.6875-6 6c-0.019531 15.906-6.3477 31.156-17.594 42.406-11.25 11.246-26.5 17.574-42.406 17.594-3.3125 0-6 2.6875-6 6s2.6875 6 6 6c15.906 0.019531 31.156 6.3477 42.406 17.594 11.246 11.25 17.574 26.5 17.594 42.406 0 3.3125 2.6875 6 6 6s6-2.6875 6-6c0.019531-15.906 6.3477-31.156 17.594-42.406 11.25-11.246 26.5-17.574 42.406-17.594 3.3125 0 6-2.6875 6-6s-2.6875-6-6-6zm-66 43.23c-7.3008-16.641-20.59-29.93-37.23-37.23 16.641-7.3008 29.93-20.59 37.23-37.23 7.3008 16.641 20.59 29.93 37.23 37.23-16.641 7.3008-29.93 20.59-37.23 37.23z"/>
  <path d="m1128 132c-15.906-0.019531-31.156-6.3477-42.406-17.594-11.246-11.25-17.574-26.5-17.594-42.406 0-3.3125-2.6875-6-6-6s-6 2.6875-6 6c-0.019531 15.906-6.3477 31.156-17.594 42.406-11.25 11.246-26.5 17.574-42.406 17.594-3.3125 0-6 2.6875-6 6s2.6875 6 6 6c15.906 0.019531 31.156 6.3477 42.406 17.594 11.246 11.25 17.574 26.5 17.594 42.406 0 3.3125 2.6875 6 6 6s6-2.6875 6-6c0.019531-15.906 6.3477-31.156 17.594-42.406 11.25-11.246 26.5-17.574 42.406-17.594 3.3125 0 6-2.6875 6-6s-2.6875-6-6-6zm-66 43.23c-7.3008-16.641-20.59-29.93-37.23-37.23 16.641-7.3008 29.93-20.59 37.23-37.23 7.3008 16.641 20.59 29.93 37.23 37.23-16.641 7.3008-29.93 20.59-37.23 37.23z"/>
  <path d="m204 132c-15.906-0.019531-31.156-6.3477-42.406-17.594-11.246-11.25-17.574-26.5-17.594-42.406 0-3.3125-2.6875-6-6-6s-6 2.6875-6 6c-0.019531 15.906-6.3477 31.156-17.594 42.406-11.25 11.246-26.5 17.574-42.406 17.594-3.3125 0-6 2.6875-6 6s2.6875 6 6 6c15.906 0.019531 31.156 6.3477 42.406 17.594 11.246 11.25 17.574 26.5 17.594 42.406 0 3.3125 2.6875 6 6 6s6-2.6875 6-6c0.019531-15.906 6.3477-31.156 17.594-42.406 11.25-11.246 26.5-17.574 42.406-17.594 3.3125 0 6-2.6875 6-6s-2.6875-6-6-6zm-66 43.23c-7.3008-16.641-20.59-29.93-37.23-37.23 16.641-7.3008 29.93-20.59 37.23-37.23 7.3008 16.641 20.59 29.93 37.23 37.23-16.641 7.3008-29.93 20.59-37.23 37.23z"/>
  <path d="m204 1056c-15.906-0.019531-31.156-6.3477-42.406-17.594-11.246-11.25-17.574-26.5-17.594-42.406 0-3.3125-2.6875-6-6-6s-6 2.6875-6 6c-0.019531 15.906-6.3477 31.156-17.594 42.406-11.25 11.246-26.5 17.574-42.406 17.594-3.3125 0-6 2.6875-6 6s2.6875 6 6 6c15.906 0.019531 31.156 6.3477 42.406 17.594 11.246 11.25 17.574 26.5 17.594 42.406 0 3.3125 2.6875 6 6 6s6-2.6875 6-6c0.019531-15.906 6.3477-31.156 17.594-42.406 11.25-11.246 26.5-17.574 42.406-17.594 3.3125 0 6-2.6875 6-6s-2.6875-6-6-6zm-66 43.23c-7.3008-16.641-20.59-29.93-37.23-37.23 16.641-7.3008 29.93-20.59 37.23-37.23 7.3008 16.641 20.59 29.93 37.23 37.23-16.641 7.3008-29.93 20.59-37.23 37.23z"/>
 </g>
</svg>
