<?xml version="1.0" encoding="UTF-8"?>
<svg width="1200pt" height="1200pt" version="1.1" viewBox="0 0 1200 1200" xmlns="http://www.w3.org/2000/svg" fill="current">
 <path d="m425.43 703.33c0-27.156-8.3359-44.59-14.148-44.59-5.6836 0-14.148 17.809-14.148 44.59 0 27.156 8.3359 44.59 14.148 44.59 5.8125-0.003907 14.148-17.309 14.148-44.59zm665.94-170.78c28.547-85.641-51.914-194.65-51.914-194.65-44.086-212.84-246.57-202.48-246.57-202.48 5.1797-25.895 57.094-33.727 57.094-33.727-72.633-49.262-238.86 25.895-238.86 25.895-25.895-41.559 38.906-106.48 38.906-106.48-181.64 20.715-207.66 116.84-207.66 116.84-85.641-54.57-218.02 23.367-218.02 23.367l77.809 25.895-93.473 25.895c-106.48 36.379-88.293 329.68-88.293 329.68l46.738-44.086-64.676 199.96c12.633-22.609 64.168-38.02 67.328-38.777-103.58 85.895-17.938 352.8-17.938 352.8-7.832-77.809 54.57-129.73 54.57-129.73-46.738 114.19 83.117 241.39 83.117 241.39l-2.6523-80.465c54.57 114.19 137.56 135.03 137.56 135.03-38.906-54.57-28.547-155.75-28.547-155.75 40.801 79.199 213.98 128.84 219.54 130.23-18.82-39.285-33.473-76.043-44.844-109.64 22.359 11.875 50.02 21.094 83.875 23.242 3.4102 0.25391 6.8203 0.25391 10.105 0.25391 65.938 0 110.91-41.051 136.67-74.527 18.57 65.305 36.504 120.5 36.504 120.5-5.9375-98.273 39.41-160.42 39.41-160.42 21.852 75.914 141.73 103.96 141.73 103.96-46.738-77.809-31.199-215.37-31.199-215.37-2.6523 75.156 93.473 114.06 93.473 114.06s-18.191-103.71 7.832-238.74c25.895-135.03-88.293-280.29-88.293-280.29 23.238-10.23 90.691 96.125 90.691 96.125zm-638.78 308.21-36.504-24.125-24 29.684-7.4531-6.0625 23.367-28.801-36.883-24.379 5.3047-7.957 37.77 24.883 25.895-32.086 7.4531 6.0625-25.262 31.328 35.621 23.496zm-65.055-137.3c0-26.906 8.0859-54.062 23.746-54.062 15.535 0 23.621 27.156 23.621 54.062s-8.0859 54.191-23.621 54.191c-15.66-0.12891-23.746-27.285-23.746-54.191zm267.29 353.94c-37.137-2.2734-66.316-13.516-88.926-27.156-32.59-100.93-35.367-169.64-35.621-182.15 23.242 12.758 48.504 23.242 75.664 31.074 2.6523 0.75781 7.4531 1.0117 13.516 1.0117 19.957 0 52.926-3.4102 61.012-6.6953 29.938-12 57.473-27.914 82.359-47.496 4.5469 39.031 19.578 99.664 35.117 155.24-24.762 34.105-71.625 80.586-143.12 76.168zm236.97-282.57h-29.18v56.086h-22.23v-56.086h-26.906v-28.043h26.906v-23.496h22.23v23.496h29.18zm-65.305-153.09c0-36 7.832-74.777 24.883-74.777 17.051 0 24.883 38.777 24.883 74.777s-7.832 74.777-24.883 74.777c-17.051 0-24.883-38.902-24.883-74.777zm102.44-68.465c-14.02-2.7773-28.168-6.6953-42.062-11.746-35.621-12.504-70.609-31.328-102.82-52.422-1.2617-0.88281-2.5273-1.6406-3.7891-2.5273 8.4648 52.801 20.211 142.36 12.254 194.27-1.8945 12-9.8516 41.051-17.559 69.094-7.957 28.926-15.535 56.211-17.051 67.707-24.379 19.199-51.664 34.988-81.094 46.863-8.2109 3.1562-59.367 7.832-68.211 5.1797-28.043-8.0859-54.316-19.074-78.062-32.465-37.641-60.254-65.43-164.34-82.484-243.29-1.8945 1.7695-3.9141 3.6641-5.8086 5.4297-19.832 17.938-40.422 33.852-61.391 46.484-3.9141 2.3984-7.832 4.6719-11.875 6.6953-20.715 11.117-41.051 18.441-60.379 21.602l-8.5898 1.3906 3.4102-7.957c0.63281-1.2617 51.156-124.17-13.895-191.75l-31.578 62.777-3.7891-10.484c-2.1484-5.6836-49.391-139.58 24.379-199.71l6.0625 7.4531c-56.715 46.359-34.359 144.76-24.883 177.85l27.031-53.684 4.6719 4.293c66.695 61.77 34.988 168.25 24 198.82 15.789-3.5352 32.211-9.8516 49.012-18.949 4.8008-2.6523 9.4727-5.4297 14.273-8.2109 128.21-79.074 244.42-285.6 245.68-287.75l3.2852-5.8086 4.5469 5.0508c1.3906 1.5156 122.65 136.17 254.27 184.04 12.379 4.5469 25.012 8.2109 37.516 11.117-4.293-24.758-23.496-113.05-86.148-183.29l-1.3906-1.6406-7.5781-8.4648 2.6523 0.37891 10.738 1.7695c5.9375 1.0117 50.906 8.5898 72.254 22.359-2.7773-27.914-16.043-97.137-77.809-119.37l3.2852-9.0938c84 30.062 85.012 139.07 85.012 140.21v19.074l-9.0938-16.926c-5.4297-9.8516-36.758-19.199-61.895-24.379 67.707 82.863 80.715 183.91 80.715 184.93l0.75781 6.5703zm-77.559 133.64c5.4297 0 15.285-24.758 15.285-65.18 0-40.422-9.8516-65.18-15.285-65.18-5.4297 0-15.285 24.758-15.285 65.18 0.003907 40.293 9.8555 65.18 15.285 65.18z"/>
</svg>
