<?xml version="1.0" encoding="UTF-8"?>
<svg width="1200pt" height="1200pt" version="1.1" viewBox="0 0 1200 1200" xmlns="http://www.w3.org/2000/svg">
 <g>
  <path d="m1080 710.06v-34.32c0-23.262-17.5-42.301-40-45.16v-120.58c0-96.66-27.141-185.48-74.078-258.76-0.33984-0.67969-0.39844-1.4609-0.80078-2.1211-68.559-106.72-174.02-174.84-295.78-193.64-1.0391-0.16016-2.1016-0.32031-3.1406-0.48047-5.8008-0.85938-11.621-1.6406-17.48-2.2617-3.7617-0.42188-7.5781-0.71875-11.379-1.0391-4.0391-0.32031-8.0586-0.71875-12.121-0.94141-8.3398-0.47266-16.738-0.75391-25.219-0.75391s-16.879 0.28125-25.219 0.76172c-4.0586 0.21875-8.0781 0.60156-12.121 0.94141-3.8008 0.32031-7.6016 0.62109-11.379 1.0391-5.8594 0.62109-11.68 1.3984-17.48 2.2617-1.0391 0.16016-2.1016 0.32031-3.1406 0.48047-121.74 18.801-227.2 86.922-295.78 193.64-0.42188 0.64062-0.46094 1.4414-0.80078 2.1211-46.938 73.273-74.078 162.09-74.078 258.75v120.58c-22.5 2.8594-40 21.898-40 45.16v34.32c-66.281 0.76172-120 54.84-120 121.3v117.26c0 66.461 53.719 120.54 120 121.3v34.32c0 25.238 20.52 45.758 45.738 45.758h108.52c25.223 0 45.742-20.52 45.742-45.738v-428.52c0-23.238-17.5-42.301-40-45.16v-120.58c0-78.738 23-149.34 62.18-205.74 0.48047-0.53906 1.0781-0.94141 1.5-1.5391 29.621-42.16 67.801-75.34 111.5-97.98h0.019531c10.199-5.2812 20.762-9.8594 31.52-13.98 1.5195-0.57812 3.0195-1.1406 4.5391-1.6992 9.3789-3.4219 18.98-6.2617 28.699-8.7812 2.3789-0.60156 4.7383-1.3008 7.1406-1.8594 9.2617-2.1602 18.699-3.7188 28.219-5.0391 2.6992-0.35937 5.3398-0.94141 8.0586-1.2383 12.047-1.3633 24.246-2.1445 36.625-2.1445s24.578 0.78125 36.621 2.1406c2.7188 0.30078 5.3594 0.85938 8.0586 1.2383 9.5195 1.3203 18.961 2.8984 28.219 5.0391 2.3984 0.55859 4.7617 1.2383 7.1406 1.8594 9.7383 2.5 19.34 5.3594 28.699 8.7812 1.5195 0.55859 3.0391 1.1211 4.5391 1.6992 10.762 4.1211 21.32 8.6992 31.52 13.98 43.719 22.641 81.879 55.82 111.52 97.98 0.53906 0.78125 1.2188 1.3789 1.8594 2.0586 38.965 56.301 61.824 126.72 61.824 205.22v120.58c-22.5 2.8594-40 21.922-40 45.16v428.52c0 25.219 20.52 45.738 45.738 45.738h108.52c25.223 0 45.742-20.52 45.742-45.738v-34.32c66.281-0.76172 120-54.84 120-121.3v-117.24c0-66.48-53.719-120.58-120-121.34zm-160 119.94h120v120h-120zm-640 120h-120v-120h120zm-40-440v120h-40v-120c0-82.859 22.121-159.14 60.078-223.56 11.238 5.2617 23.281 10.219 35.859 14.941-35.496 59.176-55.938 130.32-55.938 208.62zm664.06-208.62c12.578-4.7188 24.621-9.6797 35.859-14.941 37.961 64.422 60.082 140.7 60.082 223.56v120h-40v-120c0-78.301-20.441-149.44-55.941-208.62z"/>
  <path d="m396.62 778.88c-6.1406-9.2188-18.559-11.66-27.738-5.5-9.1797 6.1406-11.641 18.559-5.5 27.738 17.719 26.484 36.617 57.383 36.617 88.883 0 31.559-18.898 62.422-36.621 88.859-6.1406 9.1797-3.6797 21.602 5.4805 27.762 3.4219 2.2773 7.3008 3.3789 11.121 3.3789 6.4414 0 12.781-3.1016 16.641-8.8594 22.539-33.66 43.379-70.402 43.379-111.14 0-40.68-20.84-77.441-43.379-111.12z"/>
  <path d="m456.62 698.88c-6.1406-9.2188-18.559-11.66-27.738-5.5-9.1797 6.1406-11.641 18.559-5.5 27.738l8.1602 12.121c32.078 47.543 68.457 101.4 68.457 156.76 0 55.398-36.398 109.28-68.5 156.82l-8.1211 12.059c-6.1406 9.1797-3.6797 21.602 5.5 27.762 3.4219 2.2578 7.2812 3.3594 11.102 3.3594 6.4609 0 12.781-3.1016 16.641-8.8594l8.0195-11.941c33.578-49.699 75.359-111.56 75.359-179.2 0-67.578-41.762-129.46-75.32-179.14z"/>
  <path d="m768.5 1046.8c-32.102-47.539-68.5-101.42-68.5-156.82 0-55.359 36.379-109.22 68.461-156.76l8.1602-12.121c6.1406-9.1797 3.6797-21.602-5.5-27.738-9.1797-6.1602-21.602-3.6992-27.738 5.5l-8.0586 11.98c-33.562 49.68-75.324 111.56-75.324 179.14 0 67.641 41.781 129.5 75.359 179.2l8.0195 11.941c3.8594 5.7578 10.18 8.8594 16.641 8.8594 3.8203 0 7.6797-1.1016 11.102-3.3789 9.1797-6.1602 11.641-18.578 5.5-27.762z"/>
  <path d="m831.12 773.38c-9.1797-6.1406-21.602-3.6992-27.738 5.5-22.543 33.68-43.383 70.441-43.383 111.12 0 40.738 20.84 77.48 43.379 111.14 3.8594 5.7578 10.199 8.8594 16.641 8.8594 3.8203 0 7.6992-1.1016 11.121-3.3789 9.1602-6.1602 11.641-18.578 5.4805-27.762-17.723-26.438-36.621-57.301-36.621-88.859 0-31.5 18.898-62.398 36.621-88.879 6.1406-9.1797 3.6797-21.602-5.5-27.742z"/>
 </g>
</svg>
