<?xml version="1.0" encoding="UTF-8"?>
<svg width="100pt" height="100pt" version="1.1" viewBox="0 0 100 100" xmlns="http://www.w3.org/2000/svg" fill="current">
 <path d="m92.898 19.73c-1.1797-1.2578-3.1602-1.3164-4.418-0.13281l-4.332 4.0781c-1.332 1.2539-3.1641 1.6758-4.9805 1.4805-2.7617-0.29688-5.6484 0.5625-7.6719 2.5859-1.7695 1.7734-2.7461 4.1289-2.7461 6.6328 0 0.28906 0.015625 0.57812 0.042969 0.86328 0.17188 1.7148-0.53906 3.3984-1.793 4.582l-4.5703 4.3047-4.9688-38.648c-0.39844-3.1289-3.1289-5.4766-6.3672-5.4766h-27.188c-3.2383 0-5.9688 2.3477-6.3672 5.4766l-11.234 87.5c-0.48438 3.7305 2.5039 7.0234 6.3672 7.0234h49.656c3.8633 0 6.8516-3.293 6.3711-7.0234l-5.2891-41.195 7.3125-6.8828c1.3828-1.3008 3.3242-1.8984 5.1641-1.4297 0.72266 0.18359 1.4727 0.28125 2.2383 0.28125 2.5039 0 4.8594-0.97656 6.6289-2.7422 1.7695-1.7734 2.7461-4.1289 2.7461-6.6328 0-0.49219-0.039062-0.97656-0.12109-1.4531-0.32812-1.9531 0.25781-3.9453 1.6992-5.3008l3.6875-3.4727c1.2578-1.1797 1.3203-3.1562 0.13281-4.418zm-58.523 39.645c0 1.7266-1.5234 3.125-3.2969 3.125h-10.758c-1.9297 0-3.4258-1.6484-3.1836-3.5117l5.6172-43.75c0.19922-1.5625 1.5664-2.7383 3.1836-2.7383h23.125c1.6172 0 2.9844 1.1758 3.1836 2.7383l4.4062 34.32-13.578 12.777c-1.375-0.36328-2.4492-1.5234-2.4492-2.9609v-31.25c0-1.7266-1.3516-3.125-3.125-3.125s-3.125 1.3984-3.125 3.125zm23.492-0.38672c0.23437 1.8633-1.2578 3.5117-3.1875 3.5117h-2.6602l5.6172-5.2852zm22.469-22.402c-1.1797 1.1797-3.2383 1.1836-4.418 0-0.59375-0.59375-0.91797-1.375-0.91797-2.2109s0.32422-1.6172 0.91406-2.2109c0.59375-0.58984 1.375-0.91406 2.2109-0.91406s1.6172 0.32422 2.2109 0.91406c0.58984 0.59375 0.91406 1.375 0.91406 2.2109s-0.32422 1.6172-0.91406 2.2109z"/>
</svg>
